<?xml version="1.0"?>
<svg xmlns="http://www.w3.org/2000/svg" xmlns:xlink="http://www.w3.org/1999/xlink" version="1.1" x="0px" y="0px" viewBox="0 0 475.2 475.2" xml:space="preserve" class="">
	<path d="M405.6,69.6C360.7,24.7,301.1,0,237.6,0s-123.1,24.7-168,69.6S0,174.1,0,237.6s24.7,123.1,69.6,168s104.5,69.6,168,69.6    s123.1-24.7,168-69.6s69.6-104.5,69.6-168S450.5,114.5,405.6,69.6z M386.5,386.5c-39.8,39.8-92.7,61.7-148.9,61.7    s-109.1-21.9-148.9-61.7c-82.1-82.1-82.1-215.7,0-297.8C128.5,48.9,181.4,27,237.6,27s109.1,21.9,148.9,61.7    C468.6,170.8,468.6,304.4,386.5,386.5z" data-original="#000000" class="active-path" data-old_color="#363f2d" fill="#363f2d"/>
  <path transform="translate(90, 90)" id="Check" d="M285.377,46.368c-4.74-4.704-12.439-4.704-17.179,0L96.309,217.114L20.734,142.61   c-4.74-4.704-12.439-4.704-17.179,0s-4.74,12.319,0,17.011l84.2,82.997c4.692,4.644,12.499,4.644,17.191,0l180.43-179.239   C290.129,58.687,290.129,51.06,285.377,46.368C280.637,41.664,290.129,51.06,285.377,46.368z" data-original="#363f2d" class="active-path" fill="#363f2d"/>
</svg>
